<?xml version="1.0" standalone="no"?>
<!DOCTYPE svg PUBLIC "-//W3C//DTD SVG 20010904//EN"
 "http://www.w3.org/TR/2001/REC-SVG-20010904/DTD/svg10.dtd">
<svg version="1.0" xmlns="http://www.w3.org/2000/svg"
 width="260.000000pt" height="260.000000pt" viewBox="0 0 260.000000 260.000000"
 preserveAspectRatio="xMidYMid meet">
<metadata>
Created by potrace 1.14, written by Peter Selinger 2001-2017
</metadata>
<g transform="translate(0.000000,260.000000) scale(0.100000,-0.100000)"
fill="#000000" stroke="none">
<path d="M1298 2470 c-3 -8 -11 -51 -18 -95 -14 -98 -66 -258 -116 -357 -156
-314 -440 -557 -771 -661 -87 -28 -224 -56 -282 -58 -25 -1 -28 -3 -11 -6 229
-34 343 -68 492 -145 367 -188 637 -559 690 -946 7 -50 15 -92 18 -92 3 0 11
40 18 89 15 114 68 277 128 392 191 370 551 627 964 688 41 6 86 13 100 15 14
2 5 4 -18 5 -65 2 -231 38 -314 67 -326 117 -586 343 -735 638 -59 117 -109
269 -126 386 -8 52 -17 88 -19 80z"/>
</g>
</svg>
