<svg width="25" height="24" viewBox="0 0 25 24" fill="none" xmlns="http://www.w3.org/2000/svg">
<path fill-rule="evenodd" clip-rule="evenodd" d="M5.90443 0H19.953C22.6846 0 24.9287 2.24396 24.9287 4.97571V19.0243C24.9287 21.7559 22.6848 24 19.953 24H5.90443C3.1728 24 0.928711 21.756 0.928711 19.0243V4.97571C0.928711 2.24409 3.17267 0 5.90443 0ZM5.41645 2.2439C7.2702 2.2439 7.2702 5.07316 5.41645 5.07316C3.56271 5.07316 3.56271 2.2439 5.41645 2.2439ZM12.9289 4.87812C16.8314 4.87812 20.0509 8.09759 20.0509 12.0001C20.0509 15.9026 16.8314 19.1221 12.9289 19.1221C9.02635 19.1221 5.80688 15.9026 5.80688 12.0001C5.80688 8.09759 9.02635 4.87812 12.9289 4.87812Z" fill="white"/>
<path fill-rule="evenodd" clip-rule="evenodd" d="M19.5643 11.5273C15.9871 11.5125 13.0918 8.60806 13.0918 5.02737L13.0918 5H13.0917L13.0918 5.02737C13.0918 8.6081 10.1964 11.5126 6.61914 11.5273V11.5274C10.1873 11.5421 13.077 14.4319 13.0917 18H13.0918C13.1065 14.4319 15.9962 11.5422 19.5643 11.5274V11.5273Z" fill="white"/>
</svg>
