<svg width="14" height="24" viewBox="0 0 14 24" fill="none" xmlns="http://www.w3.org/2000/svg">
<path d="M0.808143 24C0.550474 24 0.351366 23.9314 0.21082 23.7943C0.0702733 23.6343 0 23.44 0 23.2114V0.822857C0 0.571429 0.0702733 0.377143 0.21082 0.240001C0.351366 0.0800003 0.550474 0 0.808143 0H13.1919C13.4495 0 13.6486 0.0800003 13.7892 0.240001C13.9297 0.377143 14 0.571429 14 0.822857V2.19429C14 2.44572 13.9297 2.64 13.7892 2.77714C13.6486 2.91429 13.4495 2.98286 13.1919 2.98286H3.40825V10.9714H12.4891C12.7468 10.9714 12.9459 11.0514 13.0864 11.2114C13.227 11.3486 13.2973 11.5429 13.2973 11.7943V13.1657C13.2973 13.3943 13.227 13.5886 13.0864 13.7486C12.9459 13.8857 12.7468 13.9543 12.4891 13.9543H3.40825V23.2114C3.40825 23.44 3.32627 23.6343 3.1623 23.7943C3.02175 23.9314 2.82264 24 2.56498 24H0.808143Z" fill="white"/>
</svg>
