<svg width="28" height="24" viewBox="0 0 28 24" fill="none" xmlns="http://www.w3.org/2000/svg">
<path fill-rule="evenodd" clip-rule="evenodd" d="M27.9286 3.22452C26.8994 3.68494 25.7953 3.99752 24.637 4.13691C25.8203 3.41882 26.7286 2.27833 27.1536 0.922406C26.0453 1.58981 24.8203 2.07135 23.5162 2.33324C22.4704 1.20542 20.9829 0.5 19.3329 0.5C16.1705 0.5 13.6039 3.10202 13.6039 6.30808C13.6039 6.76428 13.6539 7.20781 13.7539 7.63021C8.99148 7.38944 4.77073 5.07466 1.94579 1.56024C1.45414 2.41772 1.17081 3.4146 1.17081 4.47906C1.17081 6.49394 2.18329 8.27227 3.72075 9.31139C2.78327 9.28182 1.89996 9.01993 1.12498 8.58485C1.12498 8.61019 1.12498 8.63131 1.12498 8.65666C1.12498 11.4699 3.09993 13.8185 5.72071 14.3507C5.24156 14.4816 4.73323 14.5534 4.21241 14.5534C3.84158 14.5534 3.48326 14.5154 3.13327 14.4478C3.86242 16.7542 5.97904 18.4354 8.48315 18.4818C6.52069 20.0405 4.05408 20.9698 1.36664 20.9698C0.904147 20.9698 0.44999 20.9402 0 20.8895C2.53328 22.5369 5.54572 23.5 8.78315 23.5C19.3204 23.5 25.0828 14.6506 25.0828 6.97548C25.0828 6.72204 25.0786 6.47282 25.0661 6.2236C26.1869 5.40413 27.1578 4.38191 27.9244 3.21607L27.9286 3.22452Z" fill="white"/>
</svg>
