<svg width="1440" height="732" viewBox="0 0 1440 732" fill="none" xmlns="http://www.w3.org/2000/svg">
<path fill-rule="evenodd" clip-rule="evenodd" d="M17.5 731.14C114.978 731.14 194 652.118 194 554.639C194 652.118 273.022 731.14 370.5 731.14C467.978 731.14 547 652.118 547 554.639C547 652.118 626.022 731.14 723.5 731.14C820.698 731.14 899.546 652.571 899.998 555.479C900.45 652.571 979.298 731.14 1076.5 731.14C1173.97 731.14 1253 652.118 1253 554.639L1253 176.5C1253 79.0219 1173.97 0.000145337 1076.5 0.000136815C979.298 0.000128317 900.45 78.5689 899.998 175.661C899.546 78.5688 820.698 0.000114452 723.5 0.000105955C626.022 9.7433e-05 547 79.022 547 176.5C547 79.0219 467.978 0.000144652 370.5 0.00013613C273.022 0.000127608 194 79.022 194 176.5C194 79.0218 114.978 0.000113791 17.5001 0.00010527C-79.9782 9.67477e-05 -159 79.022 -159 176.5L-159 554.639C-159 652.118 -79.9783 731.14 17.5 731.14ZM1606 554.639C1606 652.118 1526.98 731.14 1429.5 731.14C1332.02 731.14 1253 652.118 1253 554.639L1253 176.5C1253 79.022 1332.02 9.81184e-05 1429.5 0.00010664C1526.98 0.000115162 1606 79.0219 1606 176.5L1606 554.639Z" fill="#D2FB51"/>
</svg>
