<svg width="1690" height="1004" viewBox="0 0 1690 1004" fill="none" xmlns="http://www.w3.org/2000/svg">
<rect x="125" y="125.091" width="1440" height="754" fill="#D2FB51"/>
<path fill-rule="evenodd" clip-rule="evenodd" d="M249.01 125.559C180.199 125.275 124.504 69.4057 124.504 0.527679C124.504 0.351701 124.504 0.175808 124.505 0H124.502C124.502 0.175808 124.503 0.351701 124.503 0.527679C124.503 69.4045 68.8098 125.274 0 125.559V125.56C68.6344 125.845 124.219 181.43 124.502 250.065H124.505C124.788 181.429 180.374 125.843 249.01 125.56V125.559Z" fill="#D2FB51"/>
<path fill-rule="evenodd" clip-rule="evenodd" d="M489.022 125.559C420.21 125.275 364.516 69.4057 364.516 0.527679C364.516 0.351701 364.516 0.175808 364.517 0H364.513C364.514 0.175808 364.514 0.351701 364.514 0.527679C364.514 69.4045 308.822 125.274 240.012 125.559V125.56C308.646 125.845 364.23 181.43 364.513 250.065H364.517C364.8 181.429 420.386 125.843 489.022 125.56V125.559Z" fill="#D2FB51"/>
<path fill-rule="evenodd" clip-rule="evenodd" d="M729.03 125.559C660.218 125.275 604.523 69.4057 604.523 0.527679C604.523 0.351701 604.524 0.175808 604.525 0H604.521C604.522 0.175808 604.522 0.351701 604.522 0.527679C604.522 69.4045 548.829 125.274 480.02 125.559V125.56C548.654 125.845 604.238 181.43 604.521 250.065H604.525C604.807 181.429 660.394 125.843 729.03 125.56V125.559Z" fill="#D2FB51"/>
<path fill-rule="evenodd" clip-rule="evenodd" d="M969.041 125.559C900.23 125.275 844.535 69.4057 844.535 0.527679C844.535 0.351701 844.536 0.175808 844.536 0H844.533C844.534 0.175808 844.534 0.351701 844.534 0.527679C844.534 69.4045 788.841 125.274 720.031 125.559V125.56C788.666 125.845 844.25 181.43 844.533 250.065H844.536C844.819 181.429 900.405 125.843 969.041 125.56V125.559Z" fill="#D2FB51"/>
<path fill-rule="evenodd" clip-rule="evenodd" d="M1209.05 125.559C1140.24 125.275 1084.54 69.4057 1084.54 0.527679C1084.54 0.351701 1084.54 0.175808 1084.54 0H1084.54C1084.54 0.175808 1084.54 0.351701 1084.54 0.527679C1084.54 69.4045 1028.85 125.274 960.039 125.559V125.56C1028.67 125.845 1084.26 181.43 1084.54 250.065H1084.54C1084.83 181.429 1140.41 125.843 1209.05 125.56V125.559Z" fill="#D2FB51"/>
<path fill-rule="evenodd" clip-rule="evenodd" d="M1449.06 125.559C1380.25 125.275 1324.55 69.4057 1324.55 0.527679C1324.55 0.351701 1324.56 0.175808 1324.56 0H1324.55C1324.55 0.175808 1324.55 0.351701 1324.55 0.527679C1324.55 69.4045 1268.86 125.274 1200.05 125.559V125.56C1268.69 125.845 1324.27 181.43 1324.55 250.065H1324.56C1324.84 181.429 1380.42 125.843 1449.06 125.56V125.559Z" fill="#D2FB51"/>
<path fill-rule="evenodd" clip-rule="evenodd" d="M1689.07 125.559C1620.26 125.275 1564.56 69.4057 1564.56 0.527679C1564.56 0.351701 1564.56 0.175808 1564.56 0H1564.56C1564.56 0.175808 1564.56 0.351701 1564.56 0.527679C1564.56 69.4045 1508.87 125.274 1440.06 125.559V125.56C1508.69 125.845 1564.28 181.43 1564.56 250.065H1564.56C1564.85 181.429 1620.43 125.843 1689.07 125.56V125.559Z" fill="#D2FB51"/>
<path fill-rule="evenodd" clip-rule="evenodd" d="M249.01 376.559C180.199 376.275 124.504 320.406 124.504 251.528C124.504 251.352 124.504 251.176 124.505 251H124.502C124.502 251.176 124.503 251.352 124.503 251.528C124.503 320.405 68.8098 376.274 0 376.559V376.56C68.6344 376.845 124.219 432.43 124.502 501.065H124.505C124.788 432.429 180.374 376.843 249.01 376.56V376.559Z" fill="#D2FB51"/>
<path fill-rule="evenodd" clip-rule="evenodd" d="M489.022 376.559C420.21 376.275 364.516 320.406 364.516 251.528C364.516 251.352 364.516 251.176 364.517 251H364.513C364.514 251.176 364.514 251.352 364.514 251.528C364.514 320.405 308.822 376.274 240.012 376.559V376.56C308.646 376.845 364.23 432.43 364.513 501.065H364.517C364.8 432.429 420.386 376.843 489.022 376.56V376.559Z" fill="#D2FB51"/>
<path fill-rule="evenodd" clip-rule="evenodd" d="M729.03 376.559C660.218 376.275 604.523 320.406 604.523 251.528C604.523 251.352 604.524 251.176 604.525 251H604.521C604.522 251.176 604.522 251.352 604.522 251.528C604.522 320.405 548.829 376.274 480.02 376.559V376.56C548.654 376.845 604.238 432.43 604.521 501.065H604.525C604.807 432.429 660.394 376.843 729.03 376.56V376.559Z" fill="#D2FB51"/>
<path fill-rule="evenodd" clip-rule="evenodd" d="M969.041 376.559C900.23 376.275 844.535 320.406 844.535 251.528C844.535 251.352 844.536 251.176 844.536 251H844.533C844.534 251.176 844.534 251.352 844.534 251.528C844.534 320.405 788.841 376.274 720.031 376.559V376.56C788.666 376.845 844.25 432.43 844.533 501.065H844.536C844.819 432.429 900.405 376.843 969.041 376.56V376.559Z" fill="#D2FB51"/>
<path fill-rule="evenodd" clip-rule="evenodd" d="M1209.05 376.559C1140.24 376.275 1084.54 320.406 1084.54 251.528C1084.54 251.352 1084.54 251.176 1084.54 251H1084.54C1084.54 251.176 1084.54 251.352 1084.54 251.528C1084.54 320.405 1028.85 376.274 960.039 376.559V376.56C1028.67 376.845 1084.26 432.43 1084.54 501.065H1084.54C1084.83 432.429 1140.41 376.843 1209.05 376.56V376.559Z" fill="#D2FB51"/>
<path fill-rule="evenodd" clip-rule="evenodd" d="M1449.06 376.559C1380.25 376.275 1324.55 320.406 1324.55 251.528C1324.55 251.352 1324.56 251.176 1324.56 251H1324.55C1324.55 251.176 1324.55 251.352 1324.55 251.528C1324.55 320.405 1268.86 376.274 1200.05 376.559V376.56C1268.69 376.845 1324.27 432.43 1324.55 501.065H1324.56C1324.84 432.429 1380.42 376.843 1449.06 376.56V376.559Z" fill="#D2FB51"/>
<path fill-rule="evenodd" clip-rule="evenodd" d="M1689.07 376.559C1620.26 376.275 1564.56 320.406 1564.56 251.528C1564.56 251.352 1564.56 251.176 1564.56 251H1564.56C1564.56 251.176 1564.56 251.352 1564.56 251.528C1564.56 320.405 1508.87 376.274 1440.06 376.559V376.56C1508.69 376.845 1564.28 432.43 1564.56 501.065H1564.56C1564.85 432.429 1620.43 376.843 1689.07 376.56V376.559Z" fill="#D2FB51"/>
<path fill-rule="evenodd" clip-rule="evenodd" d="M249.01 627.559C180.199 627.275 124.504 571.406 124.504 502.528C124.504 502.352 124.504 502.176 124.505 502H124.502C124.502 502.176 124.503 502.352 124.503 502.528C124.503 571.405 68.8098 627.274 0 627.559V627.56C68.6344 627.845 124.219 683.43 124.502 752.065H124.505C124.788 683.429 180.374 627.843 249.01 627.56V627.559Z" fill="#D2FB51"/>
<path fill-rule="evenodd" clip-rule="evenodd" d="M489.022 627.559C420.21 627.275 364.516 571.406 364.516 502.528C364.516 502.352 364.516 502.176 364.517 502H364.513C364.514 502.176 364.514 502.352 364.514 502.528C364.514 571.405 308.822 627.274 240.012 627.559V627.56C308.646 627.845 364.23 683.43 364.513 752.065H364.517C364.8 683.429 420.386 627.843 489.022 627.56V627.559Z" fill="#D2FB51"/>
<path fill-rule="evenodd" clip-rule="evenodd" d="M729.03 627.559C660.218 627.275 604.523 571.406 604.523 502.528C604.523 502.352 604.524 502.176 604.525 502H604.521C604.522 502.176 604.522 502.352 604.522 502.528C604.522 571.405 548.829 627.274 480.02 627.559V627.56C548.654 627.845 604.238 683.43 604.521 752.065H604.525C604.807 683.429 660.394 627.843 729.03 627.56V627.559Z" fill="#D2FB51"/>
<path fill-rule="evenodd" clip-rule="evenodd" d="M969.041 627.559C900.23 627.275 844.535 571.406 844.535 502.528C844.535 502.352 844.536 502.176 844.536 502H844.533C844.534 502.176 844.534 502.352 844.534 502.528C844.534 571.405 788.841 627.274 720.031 627.559V627.56C788.666 627.845 844.25 683.43 844.533 752.065H844.536C844.819 683.429 900.405 627.843 969.041 627.56V627.559Z" fill="#D2FB51"/>
<path fill-rule="evenodd" clip-rule="evenodd" d="M1209.05 627.559C1140.24 627.275 1084.54 571.406 1084.54 502.528C1084.54 502.352 1084.54 502.176 1084.54 502H1084.54C1084.54 502.176 1084.54 502.352 1084.54 502.528C1084.54 571.405 1028.85 627.274 960.039 627.559V627.56C1028.67 627.845 1084.26 683.43 1084.54 752.065H1084.54C1084.83 683.429 1140.41 627.843 1209.05 627.56V627.559Z" fill="#D2FB51"/>
<path fill-rule="evenodd" clip-rule="evenodd" d="M1449.06 627.559C1380.25 627.275 1324.55 571.406 1324.55 502.528C1324.55 502.352 1324.56 502.176 1324.56 502H1324.55C1324.55 502.176 1324.55 502.352 1324.55 502.528C1324.55 571.405 1268.86 627.274 1200.05 627.559V627.56C1268.69 627.845 1324.27 683.43 1324.55 752.065H1324.56C1324.84 683.429 1380.42 627.843 1449.06 627.56V627.559Z" fill="#D2FB51"/>
<path fill-rule="evenodd" clip-rule="evenodd" d="M1689.07 627.559C1620.26 627.275 1564.56 571.406 1564.56 502.528C1564.56 502.352 1564.56 502.176 1564.56 502H1564.56C1564.56 502.176 1564.56 502.352 1564.56 502.528C1564.56 571.405 1508.87 627.274 1440.06 627.559V627.56C1508.69 627.845 1564.28 683.43 1564.56 752.065H1564.56C1564.85 683.429 1620.43 627.843 1689.07 627.56V627.559Z" fill="#D2FB51"/>
<path fill-rule="evenodd" clip-rule="evenodd" d="M249.01 878.559C180.199 878.275 124.504 822.406 124.504 753.528C124.504 753.352 124.504 753.176 124.505 753H124.502C124.502 753.176 124.503 753.352 124.503 753.528C124.503 822.405 68.8098 878.274 0 878.559V878.56C68.6344 878.845 124.219 934.43 124.502 1003.07H124.505C124.788 934.429 180.374 878.843 249.01 878.56V878.559Z" fill="#D2FB51"/>
<path fill-rule="evenodd" clip-rule="evenodd" d="M489.022 878.559C420.21 878.275 364.516 822.406 364.516 753.528C364.516 753.352 364.516 753.176 364.517 753H364.513C364.514 753.176 364.514 753.352 364.514 753.528C364.514 822.405 308.822 878.274 240.012 878.559V878.56C308.646 878.845 364.23 934.43 364.513 1003.07H364.517C364.8 934.429 420.386 878.843 489.022 878.56V878.559Z" fill="#D2FB51"/>
<path fill-rule="evenodd" clip-rule="evenodd" d="M729.03 878.559C660.218 878.275 604.523 822.406 604.523 753.528C604.523 753.352 604.524 753.176 604.525 753H604.521C604.522 753.176 604.522 753.352 604.522 753.528C604.522 822.405 548.829 878.274 480.02 878.559V878.56C548.654 878.845 604.238 934.43 604.521 1003.07H604.525C604.807 934.429 660.394 878.843 729.03 878.56V878.559Z" fill="#D2FB51"/>
<path fill-rule="evenodd" clip-rule="evenodd" d="M969.041 878.559C900.23 878.275 844.535 822.406 844.535 753.528C844.535 753.352 844.536 753.176 844.536 753H844.533C844.534 753.176 844.534 753.352 844.534 753.528C844.534 822.405 788.841 878.274 720.031 878.559V878.56C788.666 878.845 844.25 934.43 844.533 1003.07H844.536C844.819 934.429 900.405 878.843 969.041 878.56V878.559Z" fill="#D2FB51"/>
<path fill-rule="evenodd" clip-rule="evenodd" d="M1209.05 878.559C1140.24 878.275 1084.54 822.406 1084.54 753.528C1084.54 753.352 1084.54 753.176 1084.54 753H1084.54C1084.54 753.176 1084.54 753.352 1084.54 753.528C1084.54 822.405 1028.85 878.274 960.039 878.559V878.56C1028.67 878.845 1084.26 934.43 1084.54 1003.07H1084.54C1084.83 934.429 1140.41 878.843 1209.05 878.56V878.559Z" fill="#D2FB51"/>
<path fill-rule="evenodd" clip-rule="evenodd" d="M1449.06 878.559C1380.25 878.275 1324.55 822.406 1324.55 753.528C1324.55 753.352 1324.56 753.176 1324.56 753H1324.55C1324.55 753.176 1324.55 753.352 1324.55 753.528C1324.55 822.405 1268.86 878.274 1200.05 878.559V878.56C1268.69 878.845 1324.27 934.43 1324.55 1003.07H1324.56C1324.84 934.429 1380.42 878.843 1449.06 878.56V878.559Z" fill="#D2FB51"/>
<path fill-rule="evenodd" clip-rule="evenodd" d="M1689.07 878.559C1620.26 878.275 1564.56 822.406 1564.56 753.528C1564.56 753.352 1564.56 753.176 1564.56 753H1564.56C1564.56 753.176 1564.56 753.352 1564.56 753.528C1564.56 822.405 1508.87 878.274 1440.06 878.559V878.56C1508.69 878.845 1564.28 934.43 1564.56 1003.07H1564.56C1564.85 934.429 1620.43 878.843 1689.07 878.56V878.559Z" fill="#D2FB51"/>
</svg>
