<svg width="653" height="1097" viewBox="0 0 653 1097" fill="none" xmlns="http://www.w3.org/2000/svg">
<path fill-rule="evenodd" clip-rule="evenodd" d="M65.3 270.501C101.364 270.501 130.6 241.265 130.6 205.201C130.6 241.265 159.836 270.501 195.9 270.501C231.95 270.501 261.176 241.289 261.2 205.245C261.224 241.289 290.451 270.501 326.5 270.501C362.461 270.501 391.633 241.432 391.799 205.51C391.966 241.432 421.137 270.501 457.099 270.501C493.163 270.501 522.399 241.265 522.399 205.201L522.399 65.3001C522.399 29.2359 493.163 7.75793e-05 457.099 7.44265e-05C421.138 7.12827e-05 391.966 29.0689 391.799 64.9909C391.633 29.0689 362.461 6.6153e-05 326.5 6.30092e-05C290.451 5.98577e-05 261.224 29.2119 261.2 65.2558C261.176 29.212 231.95 8.52609e-05 195.9 8.21094e-05C159.836 7.89565e-05 130.6 29.2359 130.6 65.3001C130.6 29.2359 101.364 7.38448e-05 65.3001 7.0692e-05C29.2359 6.75391e-05 8.21272e-05 29.2358 7.89744e-05 65.3001L6.67439e-05 205.201C6.3591e-05 241.265 29.2358 270.501 65.3 270.501ZM653 205.201C653 241.265 623.764 270.501 587.7 270.501C551.636 270.501 522.4 241.265 522.4 205.201L522.4 65.3001C522.4 29.2358 551.636 8.26912e-05 587.7 8.5844e-05C623.764 8.89969e-05 653 29.2359 653 65.3001L653 205.201Z" fill="#D2FB51"/>
<path fill-rule="evenodd" clip-rule="evenodd" d="M65.3 1096.5C101.364 1096.5 130.6 1067.27 130.6 1031.2C130.6 1067.27 159.836 1096.5 195.9 1096.5C231.95 1096.5 261.176 1067.29 261.2 1031.25C261.224 1067.29 290.451 1096.5 326.5 1096.5C362.461 1096.5 391.633 1067.43 391.799 1031.51C391.966 1067.43 421.137 1096.5 457.099 1096.5C493.163 1096.5 522.399 1067.27 522.399 1031.2L522.399 891.3C522.399 855.236 493.163 826 457.099 826C421.138 826 391.966 855.069 391.799 890.991C391.633 855.069 362.461 826 326.5 826C290.451 826 261.224 855.212 261.2 891.256C261.176 855.212 231.95 826 195.9 826C159.836 826 130.6 855.236 130.6 891.3C130.6 855.236 101.364 826 65.3001 826C29.2359 826 8.21272e-05 855.236 7.89744e-05 891.3L6.67439e-05 1031.2C6.3591e-05 1067.27 29.2358 1096.5 65.3 1096.5ZM653 1031.2C653 1067.27 623.764 1096.5 587.7 1096.5C551.636 1096.5 522.4 1067.27 522.4 1031.2L522.4 891.3C522.4 855.236 551.636 826 587.7 826C623.764 826 653 855.236 653 891.3L653 1031.2Z" fill="#D2FB51"/>
<rect y="169" width="653" height="850" fill="#D2FB51"/>
</svg>
