<svg width="31" height="29" viewBox="0 0 31 29" fill="none" xmlns="http://www.w3.org/2000/svg">
<path fill-rule="evenodd" clip-rule="evenodd" d="M15.4995 20.6526C20.3216 20.6526 24.2306 16.7272 24.2306 11.885C24.2306 7.04277 20.3216 3.11737 15.4995 3.11737C10.6775 3.11737 6.76845 7.04277 6.76845 11.885C6.76845 16.7272 10.6775 20.6526 15.4995 20.6526ZM15.4995 23.77C22.0361 23.77 27.335 18.4489 27.335 11.885C27.335 5.32109 22.0361 0 15.4995 0C8.96298 0 3.66406 5.32109 3.66406 11.885C3.66406 18.4489 8.96298 23.77 15.4995 23.77Z" fill="#D2FB51"/>
<path fill-rule="evenodd" clip-rule="evenodd" d="M0 18.4954H3.6765V25.4892L27.3235 25.4892V18.4954H31V28.5976L0 28.5976V18.4954Z" fill="#D2FB51"/>
</svg>
