<svg width="35" height="35" viewBox="0 0 35 35" fill="none" xmlns="http://www.w3.org/2000/svg">
<path fill-rule="evenodd" clip-rule="evenodd" d="M17.5127 24.7886C23.2585 24.7886 27.9164 20.107 27.9164 14.3319C27.9164 8.55679 23.2585 3.87517 17.5127 3.87517C11.7669 3.87517 7.10901 8.55679 7.10901 14.3319C7.10901 20.107 11.7669 24.7886 17.5127 24.7886ZM17.5127 28.5065C25.3015 28.5065 31.6155 22.1603 31.6155 14.3319C31.6155 6.50343 25.3015 0.157227 17.5127 0.157227C9.72396 0.157227 3.40991 6.50343 3.40991 14.3319C3.40991 22.1603 9.72396 28.5065 17.5127 28.5065Z" fill="white"/>
<path fill-rule="evenodd" clip-rule="evenodd" d="M0.534912 23.2393H4.5672V30.7981L30.5026 30.7981V23.2393H34.5349V34.1576L0.534912 34.1576V23.2393Z" fill="white"/>
</svg>
