<svg width="146" height="145" viewBox="0 0 146 145" fill="none" xmlns="http://www.w3.org/2000/svg">
<path d="M48.3334 0H43.9395V4.39394H48.3334V0Z" fill="black"/>
<path d="M52.7249 0H48.331V4.39394H52.7249V0Z" fill="black"/>
<path d="M57.12 0H52.7261V4.39394H57.12V0Z" fill="black"/>
<path d="M70.3021 0H65.9081V4.39394H70.3021V0Z" fill="black"/>
<path d="M74.6975 0H70.3036V4.39394H74.6975V0Z" fill="black"/>
<path d="M83.4823 0H79.0884V4.39394H83.4823V0Z" fill="black"/>
<path d="M87.8775 0H83.4835V4.39394H87.8775V0Z" fill="black"/>
<path d="M92.2729 0H87.8789V4.39394H92.2729V0Z" fill="black"/>
<path d="M96.6644 0H92.2704V4.39394H96.6644V0Z" fill="black"/>
<path d="M101.059 0H96.6655V4.39394H101.059V0Z" fill="black"/>
<path d="M105.455 0H101.061V4.39394H105.455V0Z" fill="black"/>
<path d="M52.7249 4.39404H48.331V8.78799H52.7249V4.39404Z" fill="black"/>
<path d="M70.3021 4.39404H65.9081V8.78799H70.3021V4.39404Z" fill="black"/>
<path d="M79.0904 4.39404H74.6965V8.78799H79.0904V4.39404Z" fill="black"/>
<path d="M92.2729 4.39404H87.8789V8.78799H92.2729V4.39404Z" fill="black"/>
<path d="M105.455 4.39404H101.061V8.78799H105.455V4.39404Z" fill="black"/>
<path d="M109.846 4.39404H105.453V8.78799H109.846V4.39404Z" fill="black"/>
<path d="M43.938 8.78809H39.5441V13.182H43.938V8.78809Z" fill="black"/>
<path d="M52.7249 8.78809H48.331V13.182H52.7249V8.78809Z" fill="black"/>
<path d="M65.907 8.78809H61.5131V13.182H65.907V8.78809Z" fill="black"/>
<path d="M70.3021 8.78809H65.9081V13.182H70.3021V8.78809Z" fill="black"/>
<path d="M79.0904 8.78809H74.6965V13.182H79.0904V8.78809Z" fill="black"/>
<path d="M92.2729 8.78809H87.8789V13.182H92.2729V8.78809Z" fill="black"/>
<path d="M105.455 8.7876H101.061V13.1815H105.455V8.7876Z" fill="black"/>
<path d="M109.846 8.78809H105.453V13.182H109.846V8.78809Z" fill="black"/>
<path d="M43.938 13.1816H39.5441V17.5756H43.938V13.1816Z" fill="black"/>
<path d="M52.7249 13.1816H48.331V17.5756H52.7249V13.1816Z" fill="black"/>
<path d="M61.5153 13.1821H57.1214V17.5761H61.5153V13.1821Z" fill="black"/>
<path d="M79.0904 13.1816H74.6965V17.5756H79.0904V13.1816Z" fill="black"/>
<path d="M96.6644 13.1816H92.2704V17.5756H96.6644V13.1816Z" fill="black"/>
<path d="M48.3334 17.5757H43.9395V21.9696H48.3334V17.5757Z" fill="black"/>
<path d="M57.12 17.5757H52.7261V21.9696H57.12V17.5757Z" fill="black"/>
<path d="M61.5153 17.5757H57.1214V21.9696H61.5153V17.5757Z" fill="black"/>
<path d="M74.6975 17.5757H70.3036V21.9696H74.6975V17.5757Z" fill="black"/>
<path d="M79.0904 17.5757H74.6965V21.9696H79.0904V17.5757Z" fill="black"/>
<path d="M87.8775 17.5757H83.4835V21.9696H87.8775V17.5757Z" fill="black"/>
<path d="M96.6644 17.5757H92.2704V21.9696H96.6644V17.5757Z" fill="black"/>
<path d="M105.455 17.5757H101.061V21.9696H105.455V17.5757Z" fill="black"/>
<path d="M109.846 17.5757H105.453V21.9696H109.846V17.5757Z" fill="black"/>
<path d="M39.5429 21.9697H35.1489V26.3637H39.5429V21.9697Z" fill="black"/>
<path d="M43.938 21.9697H39.5441V26.3637H43.938V21.9697Z" fill="black"/>
<path d="M65.907 21.9697H61.5131V26.3637H65.907V21.9697Z" fill="black"/>
<path d="M79.0904 21.9697H74.6965V26.3637H79.0904V21.9697Z" fill="black"/>
<path d="M83.4823 21.9697H79.0884V26.3637H83.4823V21.9697Z" fill="black"/>
<path d="M92.2729 21.9697H87.8789V26.3637H92.2729V21.9697Z" fill="black"/>
<path d="M101.059 21.9697H96.6655V26.3637H101.059V21.9697Z" fill="black"/>
<path d="M39.5429 26.3638H35.1489V30.7577H39.5429V26.3638Z" fill="black"/>
<path d="M48.3334 26.3638H43.9395V30.7577H48.3334V26.3638Z" fill="black"/>
<path d="M57.12 26.3638H52.7261V30.7577H57.12V26.3638Z" fill="black"/>
<path d="M65.907 26.3638H61.5131V30.7577H65.907V26.3638Z" fill="black"/>
<path d="M74.6975 26.3638H70.3036V30.7577H74.6975V26.3638Z" fill="black"/>
<path d="M83.4823 26.3638H79.0884V30.7577H83.4823V26.3638Z" fill="black"/>
<path d="M92.2729 26.3638H87.8789V30.7577H92.2729V26.3638Z" fill="black"/>
<path d="M101.059 26.3638H96.6655V30.7577H101.059V26.3638Z" fill="black"/>
<path d="M109.846 26.3638H105.453V30.7577H109.846V26.3638Z" fill="black"/>
<path d="M43.938 30.7578H39.5441V35.1518H43.938V30.7578Z" fill="black"/>
<path d="M48.3334 30.7578H43.9395V35.1518H48.3334V30.7578Z" fill="black"/>
<path d="M65.907 30.7578H61.5131V35.1518H65.907V30.7578Z" fill="black"/>
<path d="M79.0904 30.7578H74.6965V35.1518H79.0904V30.7578Z" fill="black"/>
<path d="M87.8775 30.7578H83.4835V35.1518H87.8775V30.7578Z" fill="black"/>
<path d="M92.2729 30.7578H87.8789V35.1518H92.2729V30.7578Z" fill="black"/>
<path d="M96.6644 30.7578H92.2704V35.1518H96.6644V30.7578Z" fill="black"/>
<path d="M101.059 30.7578H96.6655V35.1518H101.059V30.7578Z" fill="black"/>
<path d="M109.846 30.7578H105.453V35.1518H109.846V30.7578Z" fill="black"/>
<path d="M4.39394 35.1514H0V39.5453H4.39394V35.1514Z" fill="black"/>
<path d="M17.5759 35.1519H13.1819V39.5458H17.5759V35.1519Z" fill="black"/>
<path d="M26.3626 35.1514H21.9687V39.5453H26.3626V35.1514Z" fill="black"/>
<path d="M30.7559 35.1514H26.362V39.5453H30.7559V35.1514Z" fill="black"/>
<path d="M39.5429 35.1514H35.1489V39.5453H39.5429V35.1514Z" fill="black"/>
<path d="M48.3334 35.1514H43.9395V39.5453H48.3334V35.1514Z" fill="black"/>
<path d="M52.7249 35.1514H48.331V39.5453H52.7249V35.1514Z" fill="black"/>
<path d="M57.12 35.1514H52.7261V39.5453H57.12V35.1514Z" fill="black"/>
<path d="M61.5153 35.1519H57.1214V39.5458H61.5153V35.1519Z" fill="black"/>
<path d="M70.3021 35.1514H65.9081V39.5453H70.3021V35.1514Z" fill="black"/>
<path d="M74.6975 35.1514H70.3036V39.5453H74.6975V35.1514Z" fill="black"/>
<path d="M87.8775 35.1514H83.4835V39.5453H87.8775V35.1514Z" fill="black"/>
<path d="M96.6644 35.1514H92.2704V39.5453H96.6644V35.1514Z" fill="black"/>
<path d="M105.455 35.1519H101.061V39.5458H105.455V35.1519Z" fill="black"/>
<path d="M109.846 35.1514H105.453V39.5453H109.846V35.1514Z" fill="black"/>
<path d="M114.242 35.1514H109.848V39.5453H114.242V35.1514Z" fill="black"/>
<path d="M123.028 35.1514H118.635V39.5453H123.028V35.1514Z" fill="black"/>
<path d="M4.39394 39.5454H0V43.9394H4.39394V39.5454Z" fill="black"/>
<path d="M13.1806 39.5454H8.78662V43.9394H13.1806V39.5454Z" fill="black"/>
<path d="M39.5429 39.5454H35.1489V43.9394H39.5429V39.5454Z" fill="black"/>
<path d="M43.938 39.5454H39.5441V43.9394H43.938V39.5454Z" fill="black"/>
<path d="M65.907 39.5454H61.5131V43.9394H65.907V39.5454Z" fill="black"/>
<path d="M92.2729 39.5454H87.8789V43.9394H92.2729V39.5454Z" fill="black"/>
<path d="M101.059 39.5454H96.6655V43.9394H101.059V39.5454Z" fill="black"/>
<path d="M109.846 39.5454H105.453V43.9394H109.846V39.5454Z" fill="black"/>
<path d="M114.242 39.5454H109.848V43.9394H114.242V39.5454Z" fill="black"/>
<path d="M118.637 39.5454H114.243V43.9394H118.637V39.5454Z" fill="black"/>
<path d="M123.028 39.5454H118.635V43.9394H123.028V39.5454Z" fill="black"/>
<path d="M144.999 39.5454H140.605V43.9394H144.999V39.5454Z" fill="black"/>
<path d="M4.39394 43.9395H0V48.3334H4.39394V43.9395Z" fill="black"/>
<path d="M21.9675 43.9395H17.5735V48.3334H21.9675V43.9395Z" fill="black"/>
<path d="M30.7559 43.9395H26.362V48.3334H30.7559V43.9395Z" fill="black"/>
<path d="M39.5429 43.9395H35.1489V48.3334H39.5429V43.9395Z" fill="black"/>
<path d="M43.938 43.9395H39.5441V48.3334H43.938V43.9395Z" fill="black"/>
<path d="M48.3334 43.9395H43.9395V48.3334H48.3334V43.9395Z" fill="black"/>
<path d="M52.7249 43.9395H48.331V48.3334H52.7249V43.9395Z" fill="black"/>
<path d="M57.12 43.9395H52.7261V48.3334H57.12V43.9395Z" fill="black"/>
<path d="M79.0904 43.9395H74.6965V48.3334H79.0904V43.9395Z" fill="black"/>
<path d="M87.8775 43.9395H83.4835V48.3334H87.8775V43.9395Z" fill="black"/>
<path d="M96.6644 43.9395H92.2704V48.3334H96.6644V43.9395Z" fill="black"/>
<path d="M101.059 43.9395H96.6655V48.3334H101.059V43.9395Z" fill="black"/>
<path d="M109.846 43.9395H105.453V48.3334H109.846V43.9395Z" fill="black"/>
<path d="M114.242 43.9395H109.848V48.3334H114.242V43.9395Z" fill="black"/>
<path d="M123.028 43.9395H118.635V48.3334H123.028V43.9395Z" fill="black"/>
<path d="M127.422 43.9395H123.028V48.3334H127.422V43.9395Z" fill="black"/>
<path d="M136.212 43.9395H131.818V48.3334H136.212V43.9395Z" fill="black"/>
<path d="M140.604 43.9395H136.21V48.3334H140.604V43.9395Z" fill="black"/>
<path d="M144.999 43.9395H140.605V48.3334H144.999V43.9395Z" fill="black"/>
<path d="M4.39394 48.3335H0V52.7274H4.39394V48.3335Z" fill="black"/>
<path d="M17.5759 48.3335H13.1819V52.7274H17.5759V48.3335Z" fill="black"/>
<path d="M39.5429 48.3335H35.1489V52.7274H39.5429V48.3335Z" fill="black"/>
<path d="M43.938 48.3335H39.5441V52.7274H43.938V48.3335Z" fill="black"/>
<path d="M48.3334 48.3335H43.9395V52.7274H48.3334V48.3335Z" fill="black"/>
<path d="M52.7249 48.3335H48.331V52.7274H52.7249V48.3335Z" fill="black"/>
<path d="M57.12 48.3335H52.7261V52.7274H57.12V48.3335Z" fill="black"/>
<path d="M65.907 48.3335H61.5131V52.7274H65.907V48.3335Z" fill="black"/>
<path d="M79.0904 48.3335H74.6965V52.7274H79.0904V48.3335Z" fill="black"/>
<path d="M87.8775 48.3335H83.4835V52.7274H87.8775V48.3335Z" fill="black"/>
<path d="M92.2729 48.3335H87.8789V52.7274H92.2729V48.3335Z" fill="black"/>
<path d="M105.455 48.3335H101.061V52.7274H105.455V48.3335Z" fill="black"/>
<path d="M109.846 48.3335H105.453V52.7274H109.846V48.3335Z" fill="black"/>
<path d="M118.637 48.3335H114.243V52.7274H118.637V48.3335Z" fill="black"/>
<path d="M127.422 48.3335H123.028V52.7274H127.422V48.3335Z" fill="black"/>
<path d="M131.817 48.3335H127.423V52.7274H131.817V48.3335Z" fill="black"/>
<path d="M8.78548 52.7275H4.39154V57.1215H8.78548V52.7275Z" fill="black"/>
<path d="M13.1806 52.7275H8.78662V57.1215H13.1806V52.7275Z" fill="black"/>
<path d="M26.3626 52.7275H21.9687V57.1215H26.3626V52.7275Z" fill="black"/>
<path d="M30.7559 52.7275H26.362V57.1215H30.7559V52.7275Z" fill="black"/>
<path d="M35.151 52.7275H30.757V57.1215H35.151V52.7275Z" fill="black"/>
<path d="M39.5429 52.7275H35.1489V57.1215H39.5429V52.7275Z" fill="black"/>
<path d="M43.938 52.7275H39.5441V57.1215H43.938V52.7275Z" fill="black"/>
<path d="M48.3334 52.7275H43.9395V57.1215H48.3334V52.7275Z" fill="black"/>
<path d="M105.455 52.7275H101.061V57.1215H105.455V52.7275Z" fill="black"/>
<path d="M118.637 52.7275H114.243V57.1215H118.637V52.7275Z" fill="black"/>
<path d="M123.028 52.7275H118.635V57.1215H123.028V52.7275Z" fill="black"/>
<path d="M131.817 52.7275H127.423V57.1215H131.817V52.7275Z" fill="black"/>
<path d="M140.604 52.7275H136.21V57.1215H140.604V52.7275Z" fill="black"/>
<path d="M144.999 52.7275H140.605V57.1215H144.999V52.7275Z" fill="black"/>
<path d="M4.39394 57.1211H0V61.515H4.39394V57.1211Z" fill="black"/>
<path d="M13.1806 57.1216H8.78662V61.5155H13.1806V57.1216Z" fill="black"/>
<path d="M35.151 57.1211H30.757V61.515H35.151V57.1211Z" fill="black"/>
<path d="M39.5429 57.1216H35.1489V61.5155H39.5429V57.1216Z" fill="black"/>
<path d="M48.3334 57.1211H43.9395V61.515H48.3334V57.1211Z" fill="black"/>
<path d="M52.7249 57.1216H48.331V61.5155H52.7249V57.1216Z" fill="black"/>
<path d="M70.3021 57.1216H65.9081V61.5155H70.3021V57.1216Z" fill="black"/>
<path d="M74.6975 57.1216H70.3036V61.5155H74.6975V57.1216Z" fill="black"/>
<path d="M79.0904 57.1216H74.6965V61.5155H79.0904V57.1216Z" fill="black"/>
<path d="M96.6644 57.1216H92.2704V61.5155H96.6644V57.1216Z" fill="black"/>
<path d="M101.059 57.1216H96.6655V61.5155H101.059V57.1216Z" fill="black"/>
<path d="M114.242 57.1216H109.848V61.5155H114.242V57.1216Z" fill="black"/>
<path d="M118.637 57.1211H114.243V61.515H118.637V57.1211Z" fill="black"/>
<path d="M123.028 57.1216H118.635V61.5155H123.028V57.1216Z" fill="black"/>
<path d="M127.422 57.1216H123.028V61.5155H127.422V57.1216Z" fill="black"/>
<path d="M140.604 57.1216H136.21V61.5155H140.604V57.1216Z" fill="black"/>
<path d="M144.999 57.1216H140.605V61.5155H144.999V57.1216Z" fill="black"/>
<path d="M13.1806 61.5151H8.78662V65.9091H13.1806V61.5151Z" fill="black"/>
<path d="M26.3626 61.5151H21.9687V65.9091H26.3626V61.5151Z" fill="black"/>
<path d="M30.7559 61.5151H26.362V65.9091H30.7559V61.5151Z" fill="black"/>
<path d="M35.151 61.5151H30.757V65.9091H35.151V61.5151Z" fill="black"/>
<path d="M48.3334 61.5151H43.9395V65.9091H48.3334V61.5151Z" fill="black"/>
<path d="M52.7249 61.5151H48.331V65.9091H52.7249V61.5151Z" fill="black"/>
<path d="M83.4823 61.5151H79.0884V65.9091H83.4823V61.5151Z" fill="black"/>
<path d="M92.2729 61.5151H87.8789V65.9091H92.2729V61.5151Z" fill="black"/>
<path d="M96.6644 61.5151H92.2704V65.9091H96.6644V61.5151Z" fill="black"/>
<path d="M101.059 61.5151H96.6655V65.9091H101.059V61.5151Z" fill="black"/>
<path d="M105.455 61.5156H101.061V65.9096H105.455V61.5156Z" fill="black"/>
<path d="M109.846 61.5151H105.453V65.9091H109.846V61.5151Z" fill="black"/>
<path d="M114.242 61.5151H109.848V65.9091H114.242V61.5151Z" fill="black"/>
<path d="M118.637 61.5151H114.243V65.9091H118.637V61.5151Z" fill="black"/>
<path d="M123.028 61.5151H118.635V65.9091H123.028V61.5151Z" fill="black"/>
<path d="M127.422 61.5151H123.028V65.9091H127.422V61.5151Z" fill="black"/>
<path d="M136.212 61.5151H131.818V65.9091H136.212V61.5151Z" fill="black"/>
<path d="M140.604 61.5151H136.21V65.9091H140.604V61.5151Z" fill="black"/>
<path d="M35.151 65.9092H30.757V70.3031H35.151V65.9092Z" fill="black"/>
<path d="M43.938 65.9092H39.5441V70.3031H43.938V65.9092Z" fill="black"/>
<path d="M48.3334 65.9092H43.9395V70.3031H48.3334V65.9092Z" fill="black"/>
<path d="M57.12 65.9092H52.7261V70.3031H57.12V65.9092Z" fill="black"/>
<path d="M65.907 65.9092H61.5131V70.3031H65.907V65.9092Z" fill="black"/>
<path d="M70.3021 65.9092H65.9081V70.3031H70.3021V65.9092Z" fill="black"/>
<path d="M79.0904 65.9092H74.6965V70.3031H79.0904V65.9092Z" fill="black"/>
<path d="M83.4823 65.9092H79.0884V70.3031H83.4823V65.9092Z" fill="black"/>
<path d="M87.8775 65.9092H83.4835V70.3031H87.8775V65.9092Z" fill="black"/>
<path d="M96.6644 65.9092H92.2704V70.3031H96.6644V65.9092Z" fill="black"/>
<path d="M101.059 65.9092H96.6655V70.3031H101.059V65.9092Z" fill="black"/>
<path d="M105.455 65.9092H101.061V70.3031H105.455V65.9092Z" fill="black"/>
<path d="M118.637 65.9092H114.243V70.3031H118.637V65.9092Z" fill="black"/>
<path d="M131.817 65.9092H127.423V70.3031H131.817V65.9092Z" fill="black"/>
<path d="M140.604 65.9092H136.21V70.3031H140.604V65.9092Z" fill="black"/>
<path d="M4.39394 70.3032H0V74.6972H4.39394V70.3032Z" fill="black"/>
<path d="M13.1806 70.3032H8.78662V74.6972H13.1806V70.3032Z" fill="black"/>
<path d="M26.3626 70.3032H21.9687V74.6972H26.3626V70.3032Z" fill="black"/>
<path d="M30.7559 70.3032H26.362V74.6972H30.7559V70.3032Z" fill="black"/>
<path d="M35.151 70.3032H30.757V74.6972H35.151V70.3032Z" fill="black"/>
<path d="M43.938 70.3032H39.5441V74.6972H43.938V70.3032Z" fill="black"/>
<path d="M52.7249 70.3032H48.331V74.6972H52.7249V70.3032Z" fill="black"/>
<path d="M57.12 70.3032H52.7261V74.6972H57.12V70.3032Z" fill="black"/>
<path d="M61.5153 70.3032H57.1214V74.6972H61.5153V70.3032Z" fill="black"/>
<path d="M74.6975 70.3032H70.3036V74.6972H74.6975V70.3032Z" fill="black"/>
<path d="M79.0904 70.3032H74.6965V74.6972H79.0904V70.3032Z" fill="black"/>
<path d="M87.8775 70.3032H83.4835V74.6972H87.8775V70.3032Z" fill="black"/>
<path d="M92.2729 70.3032H87.8789V74.6972H92.2729V70.3032Z" fill="black"/>
<path d="M96.6644 70.3032H92.2704V74.6972H96.6644V70.3032Z" fill="black"/>
<path d="M101.059 70.3032H96.6655V74.6972H101.059V70.3032Z" fill="black"/>
<path d="M105.455 70.3032H101.061V74.6972H105.455V70.3032Z" fill="black"/>
<path d="M109.846 70.3032H105.453V74.6972H109.846V70.3032Z" fill="black"/>
<path d="M118.637 70.3032H114.243V74.6972H118.637V70.3032Z" fill="black"/>
<path d="M127.422 70.3032H123.028V74.6972H127.422V70.3032Z" fill="black"/>
<path d="M131.817 70.3032H127.423V74.6972H131.817V70.3032Z" fill="black"/>
<path d="M140.604 70.3032H136.21V74.6972H140.604V70.3032Z" fill="black"/>
<path d="M4.39394 74.6973H0V79.0912H4.39394V74.6973Z" fill="black"/>
<path d="M8.78548 74.6968H4.39154V79.0907H8.78548V74.6968Z" fill="black"/>
<path d="M13.1806 74.6968H8.78662V79.0907H13.1806V74.6968Z" fill="black"/>
<path d="M21.9675 74.6968H17.5735V79.0907H21.9675V74.6968Z" fill="black"/>
<path d="M26.3626 74.6968H21.9687V79.0907H26.3626V74.6968Z" fill="black"/>
<path d="M43.938 74.6968H39.5441V79.0907H43.938V74.6968Z" fill="black"/>
<path d="M52.7249 74.6968H48.331V79.0907H52.7249V74.6968Z" fill="black"/>
<path d="M57.12 74.6968H52.7261V79.0907H57.12V74.6968Z" fill="black"/>
<path d="M61.5153 74.6973H57.1214V79.0912H61.5153V74.6973Z" fill="black"/>
<path d="M74.6975 74.6968H70.3036V79.0907H74.6975V74.6968Z" fill="black"/>
<path d="M96.6644 74.6968H92.2704V79.0907H96.6644V74.6968Z" fill="black"/>
<path d="M101.059 74.6968H96.6655V79.0907H101.059V74.6968Z" fill="black"/>
<path d="M105.455 74.6973H101.061V79.0912H105.455V74.6973Z" fill="black"/>
<path d="M123.028 74.6968H118.635V79.0907H123.028V74.6968Z" fill="black"/>
<path d="M131.817 74.6968H127.423V79.0907H131.817V74.6968Z" fill="black"/>
<path d="M13.1806 79.0908H8.78662V83.4848H13.1806V79.0908Z" fill="black"/>
<path d="M30.7559 79.0908H26.362V83.4848H30.7559V79.0908Z" fill="black"/>
<path d="M43.938 79.0908H39.5441V83.4848H43.938V79.0908Z" fill="black"/>
<path d="M83.4823 79.0908H79.0884V83.4848H83.4823V79.0908Z" fill="black"/>
<path d="M92.2729 79.0908H87.8789V83.4848H92.2729V79.0908Z" fill="black"/>
<path d="M101.059 79.0908H96.6655V83.4848H101.059V79.0908Z" fill="black"/>
<path d="M114.242 79.0908H109.848V83.4848H114.242V79.0908Z" fill="black"/>
<path d="M118.637 79.0908H114.243V83.4848H118.637V79.0908Z" fill="black"/>
<path d="M136.212 79.0908H131.818V83.4848H136.212V79.0908Z" fill="black"/>
<path d="M144.999 79.0908H140.605V83.4848H144.999V79.0908Z" fill="black"/>
<path d="M4.39394 83.4849H0V87.8788H4.39394V83.4849Z" fill="black"/>
<path d="M8.78548 83.4849H4.39154V87.8788H8.78548V83.4849Z" fill="black"/>
<path d="M35.151 83.4849H30.757V87.8788H35.151V83.4849Z" fill="black"/>
<path d="M39.5429 83.4849H35.1489V87.8788H39.5429V83.4849Z" fill="black"/>
<path d="M43.938 83.4849H39.5441V87.8788H43.938V83.4849Z" fill="black"/>
<path d="M48.3334 83.4849H43.9395V87.8788H48.3334V83.4849Z" fill="black"/>
<path d="M52.7249 83.4849H48.331V87.8788H52.7249V83.4849Z" fill="black"/>
<path d="M57.12 83.4849H52.7261V87.8788H57.12V83.4849Z" fill="black"/>
<path d="M61.5153 83.4849H57.1214V87.8788H61.5153V83.4849Z" fill="black"/>
<path d="M65.907 83.4849H61.5131V87.8788H65.907V83.4849Z" fill="black"/>
<path d="M70.3021 83.4849H65.9081V87.8788H70.3021V83.4849Z" fill="black"/>
<path d="M74.6975 83.4849H70.3036V87.8788H74.6975V83.4849Z" fill="black"/>
<path d="M79.0904 83.4849H74.6965V87.8788H79.0904V83.4849Z" fill="black"/>
<path d="M83.4823 83.4849H79.0884V87.8788H83.4823V83.4849Z" fill="black"/>
<path d="M87.8775 83.4849H83.4835V87.8788H87.8775V83.4849Z" fill="black"/>
<path d="M96.6644 83.4849H92.2704V87.8788H96.6644V83.4849Z" fill="black"/>
<path d="M109.846 83.4849H105.453V87.8788H109.846V83.4849Z" fill="black"/>
<path d="M123.028 83.4849H118.635V87.8788H123.028V83.4849Z" fill="black"/>
<path d="M140.604 83.4849H136.21V87.8788H140.604V83.4849Z" fill="black"/>
<path d="M30.7559 87.8789H26.362V92.2729H30.7559V87.8789Z" fill="black"/>
<path d="M43.938 87.8789H39.5441V92.2729H43.938V87.8789Z" fill="black"/>
<path d="M52.7249 87.8789H48.331V92.2729H52.7249V87.8789Z" fill="black"/>
<path d="M65.907 87.8789H61.5131V92.2729H65.907V87.8789Z" fill="black"/>
<path d="M74.6975 87.8789H70.3036V92.2729H74.6975V87.8789Z" fill="black"/>
<path d="M79.0904 87.8789H74.6965V92.2729H79.0904V87.8789Z" fill="black"/>
<path d="M83.4823 87.8789H79.0884V92.2729H83.4823V87.8789Z" fill="black"/>
<path d="M101.059 87.8789H96.6655V92.2729H101.059V87.8789Z" fill="black"/>
<path d="M105.455 87.8789H101.061V92.2729H105.455V87.8789Z" fill="black"/>
<path d="M123.028 87.8789H118.635V92.2729H123.028V87.8789Z" fill="black"/>
<path d="M140.604 87.8789H136.21V92.2729H140.604V87.8789Z" fill="black"/>
<path d="M8.78548 92.2729H4.39154V96.6669H8.78548V92.2729Z" fill="black"/>
<path d="M21.9675 92.2729H17.5735V96.6669H21.9675V92.2729Z" fill="black"/>
<path d="M26.3626 92.2729H21.9687V96.6669H26.3626V92.2729Z" fill="black"/>
<path d="M35.151 92.2729H30.757V96.6669H35.151V92.2729Z" fill="black"/>
<path d="M43.938 92.2729H39.5441V96.6669H43.938V92.2729Z" fill="black"/>
<path d="M48.3334 92.2729H43.9395V96.6669H48.3334V92.2729Z" fill="black"/>
<path d="M57.12 92.2729H52.7261V96.6669H57.12V92.2729Z" fill="black"/>
<path d="M65.907 92.2729H61.5131V96.6669H65.907V92.2729Z" fill="black"/>
<path d="M70.3021 92.2729H65.9081V96.6669H70.3021V92.2729Z" fill="black"/>
<path d="M74.6975 92.2729H70.3036V96.6669H74.6975V92.2729Z" fill="black"/>
<path d="M83.4823 92.2729H79.0884V96.6669H83.4823V92.2729Z" fill="black"/>
<path d="M87.8775 92.2729H83.4835V96.6669H87.8775V92.2729Z" fill="black"/>
<path d="M92.2729 92.2729H87.8789V96.6669H92.2729V92.2729Z" fill="black"/>
<path d="M96.6644 92.2729H92.2704V96.6669H96.6644V92.2729Z" fill="black"/>
<path d="M101.059 92.2729H96.6655V96.6669H101.059V92.2729Z" fill="black"/>
<path d="M118.637 92.2729H114.243V96.6669H118.637V92.2729Z" fill="black"/>
<path d="M123.028 92.2729H118.635V96.6669H123.028V92.2729Z" fill="black"/>
<path d="M140.604 92.2729H136.21V96.6669H140.604V92.2729Z" fill="black"/>
<path d="M144.999 92.2729H140.605V96.6669H144.999V92.2729Z" fill="black"/>
<path d="M4.39394 96.667H0V101.061H4.39394V96.667Z" fill="black"/>
<path d="M8.78548 96.6665H4.39154V101.06H8.78548V96.6665Z" fill="black"/>
<path d="M30.7559 96.6665H26.362V101.06H30.7559V96.6665Z" fill="black"/>
<path d="M35.151 96.667H30.757V101.061H35.151V96.667Z" fill="black"/>
<path d="M43.938 96.6665H39.5441V101.06H43.938V96.6665Z" fill="black"/>
<path d="M52.7249 96.6665H48.331V101.06H52.7249V96.6665Z" fill="black"/>
<path d="M61.5153 96.667H57.1214V101.061H61.5153V96.667Z" fill="black"/>
<path d="M70.3021 96.6665H65.9081V101.06H70.3021V96.6665Z" fill="black"/>
<path d="M79.0904 96.6665H74.6965V101.06H79.0904V96.6665Z" fill="black"/>
<path d="M92.2729 96.667H87.8789V101.061H92.2729V96.667Z" fill="black"/>
<path d="M101.059 96.6665H96.6655V101.06H101.059V96.6665Z" fill="black"/>
<path d="M118.637 96.667H114.243V101.061H118.637V96.667Z" fill="black"/>
<path d="M123.028 96.6665H118.635V101.06H123.028V96.6665Z" fill="black"/>
<path d="M136.212 96.667H131.818V101.061H136.212V96.667Z" fill="black"/>
<path d="M144.999 96.6665H140.605V101.06H144.999V96.6665Z" fill="black"/>
<path d="M8.78548 101.061H4.39154V105.454H8.78548V101.061Z" fill="black"/>
<path d="M13.1806 101.061H8.78662V105.454H13.1806V101.061Z" fill="black"/>
<path d="M17.5759 101.061H13.1819V105.454H17.5759V101.061Z" fill="black"/>
<path d="M35.151 101.061H30.757V105.454H35.151V101.061Z" fill="black"/>
<path d="M39.5429 101.061H35.1489V105.454H39.5429V101.061Z" fill="black"/>
<path d="M43.938 101.061H39.5441V105.454H43.938V101.061Z" fill="black"/>
<path d="M48.3334 101.061H43.9395V105.454H48.3334V101.061Z" fill="black"/>
<path d="M61.5153 101.061H57.1214V105.454H61.5153V101.061Z" fill="black"/>
<path d="M65.907 101.061H61.5131V105.454H65.907V101.061Z" fill="black"/>
<path d="M74.6975 101.061H70.3036V105.454H74.6975V101.061Z" fill="black"/>
<path d="M83.4823 101.061H79.0884V105.454H83.4823V101.061Z" fill="black"/>
<path d="M96.6644 101.061H92.2704V105.454H96.6644V101.061Z" fill="black"/>
<path d="M123.028 101.061H118.635V105.454H123.028V101.061Z" fill="black"/>
<path d="M144.999 101.061H140.605V105.454H144.999V101.061Z" fill="black"/>
<path d="M4.39394 105.455H0V109.849H4.39394V105.455Z" fill="black"/>
<path d="M13.1806 105.455H8.78662V109.849H13.1806V105.455Z" fill="black"/>
<path d="M17.5759 105.455H13.1819V109.849H17.5759V105.455Z" fill="black"/>
<path d="M26.3626 105.455H21.9687V109.849H26.3626V105.455Z" fill="black"/>
<path d="M30.7559 105.455H26.362V109.849H30.7559V105.455Z" fill="black"/>
<path d="M39.5429 105.455H35.1489V109.849H39.5429V105.455Z" fill="black"/>
<path d="M43.938 105.455H39.5441V109.849H43.938V105.455Z" fill="black"/>
<path d="M52.7249 105.455H48.331V109.849H52.7249V105.455Z" fill="black"/>
<path d="M61.5153 105.455H57.1214V109.849H61.5153V105.455Z" fill="black"/>
<path d="M65.907 105.455H61.5131V109.849H65.907V105.455Z" fill="black"/>
<path d="M70.3021 105.455H65.9081V109.849H70.3021V105.455Z" fill="black"/>
<path d="M74.6975 105.455H70.3036V109.849H74.6975V105.455Z" fill="black"/>
<path d="M79.0904 105.455H74.6965V109.849H79.0904V105.455Z" fill="black"/>
<path d="M87.8775 105.455H83.4835V109.849H87.8775V105.455Z" fill="black"/>
<path d="M96.6644 105.455H92.2704V109.849H96.6644V105.455Z" fill="black"/>
<path d="M105.455 105.455H101.061V109.849H105.455V105.455Z" fill="black"/>
<path d="M109.846 105.455H105.453V109.849H109.846V105.455Z" fill="black"/>
<path d="M114.242 105.455H109.848V109.849H114.242V105.455Z" fill="black"/>
<path d="M118.637 105.455H114.243V109.849H118.637V105.455Z" fill="black"/>
<path d="M123.028 105.455H118.635V109.849H123.028V105.455Z" fill="black"/>
<path d="M127.422 105.455H123.028V109.849H127.422V105.455Z" fill="black"/>
<path d="M131.817 105.455H127.423V109.849H131.817V105.455Z" fill="black"/>
<path d="M140.604 105.455H136.21V109.849H140.604V105.455Z" fill="black"/>
<path d="M39.5429 109.849H35.1489V114.243H39.5429V109.849Z" fill="black"/>
<path d="M61.5153 109.849H57.1214V114.243H61.5153V109.849Z" fill="black"/>
<path d="M87.8775 109.849H83.4835V114.243H87.8775V109.849Z" fill="black"/>
<path d="M92.2729 109.849H87.8789V114.243H92.2729V109.849Z" fill="black"/>
<path d="M101.059 109.849H96.6655V114.243H101.059V109.849Z" fill="black"/>
<path d="M109.846 109.849H105.453V114.243H109.846V109.849Z" fill="black"/>
<path d="M127.422 109.849H123.028V114.243H127.422V109.849Z" fill="black"/>
<path d="M131.817 109.849H127.423V114.243H131.817V109.849Z" fill="black"/>
<path d="M140.604 109.849H136.21V114.243H140.604V109.849Z" fill="black"/>
<path d="M144.999 109.849H140.605V114.243H144.999V109.849Z" fill="black"/>
<path d="M43.938 114.243H39.5441V118.637H43.938V114.243Z" fill="black"/>
<path d="M48.3334 114.243H43.9395V118.637H48.3334V114.243Z" fill="black"/>
<path d="M52.7249 114.243H48.331V118.637H52.7249V114.243Z" fill="black"/>
<path d="M57.12 114.243H52.7261V118.637H57.12V114.243Z" fill="black"/>
<path d="M61.5153 114.243H57.1214V118.637H61.5153V114.243Z" fill="black"/>
<path d="M92.2729 114.243H87.8789V118.637H92.2729V114.243Z" fill="black"/>
<path d="M96.6644 114.243H92.2704V118.637H96.6644V114.243Z" fill="black"/>
<path d="M109.846 114.243H105.453V118.637H109.846V114.243Z" fill="black"/>
<path d="M118.637 114.243H114.243V118.637H118.637V114.243Z" fill="black"/>
<path d="M127.422 114.243H123.028V118.637H127.422V114.243Z" fill="black"/>
<path d="M131.817 114.243H127.423V118.637H131.817V114.243Z" fill="black"/>
<path d="M136.212 114.243H131.818V118.637H136.212V114.243Z" fill="black"/>
<path d="M39.5429 118.637H35.1489V123.031H39.5429V118.637Z" fill="black"/>
<path d="M57.12 118.637H52.7261V123.031H57.12V118.637Z" fill="black"/>
<path d="M74.6975 118.637H70.3036V123.031H74.6975V118.637Z" fill="black"/>
<path d="M92.2729 118.636H87.8789V123.03H92.2729V118.636Z" fill="black"/>
<path d="M109.846 118.637H105.453V123.031H109.846V118.637Z" fill="black"/>
<path d="M127.422 118.637H123.028V123.031H127.422V118.637Z" fill="black"/>
<path d="M48.3334 123.03H43.9395V127.424H48.3334V123.03Z" fill="black"/>
<path d="M52.7249 123.03H48.331V127.424H52.7249V123.03Z" fill="black"/>
<path d="M70.3021 123.03H65.9081V127.424H70.3021V123.03Z" fill="black"/>
<path d="M74.6975 123.03H70.3036V127.424H74.6975V123.03Z" fill="black"/>
<path d="M87.8775 123.03H83.4835V127.424H87.8775V123.03Z" fill="black"/>
<path d="M101.059 123.03H96.6655V127.424H101.059V123.03Z" fill="black"/>
<path d="M109.846 123.03H105.453V127.424H109.846V123.03Z" fill="black"/>
<path d="M114.242 123.03H109.848V127.424H114.242V123.03Z" fill="black"/>
<path d="M118.637 123.03H114.243V127.424H118.637V123.03Z" fill="black"/>
<path d="M123.028 123.03H118.635V127.424H123.028V123.03Z" fill="black"/>
<path d="M127.422 123.03H123.028V127.424H127.422V123.03Z" fill="black"/>
<path d="M131.817 123.03H127.423V127.424H131.817V123.03Z" fill="black"/>
<path d="M140.604 123.03H136.21V127.424H140.604V123.03Z" fill="black"/>
<path d="M39.5429 127.424H35.1489V131.818H39.5429V127.424Z" fill="black"/>
<path d="M43.938 127.424H39.5441V131.818H43.938V127.424Z" fill="black"/>
<path d="M65.907 127.424H61.5131V131.818H65.907V127.424Z" fill="black"/>
<path d="M70.3021 127.424H65.9081V131.818H70.3021V127.424Z" fill="black"/>
<path d="M79.0904 127.424H74.6965V131.818H79.0904V127.424Z" fill="black"/>
<path d="M87.8775 127.424H83.4835V131.818H87.8775V127.424Z" fill="black"/>
<path d="M92.2729 127.424H87.8789V131.818H92.2729V127.424Z" fill="black"/>
<path d="M96.6644 127.424H92.2704V131.818H96.6644V127.424Z" fill="black"/>
<path d="M105.455 127.424H101.061V131.818H105.455V127.424Z" fill="black"/>
<path d="M109.846 127.424H105.453V131.818H109.846V127.424Z" fill="black"/>
<path d="M118.637 127.424H114.243V131.818H118.637V127.424Z" fill="black"/>
<path d="M127.422 127.424H123.028V131.818H127.422V127.424Z" fill="black"/>
<path d="M136.212 127.424H131.818V131.818H136.212V127.424Z" fill="black"/>
<path d="M140.604 127.424H136.21V131.818H140.604V127.424Z" fill="black"/>
<path d="M48.3334 131.818H43.9395V136.212H48.3334V131.818Z" fill="black"/>
<path d="M61.5153 131.818H57.1214V136.212H61.5153V131.818Z" fill="black"/>
<path d="M65.907 131.818H61.5131V136.212H65.907V131.818Z" fill="black"/>
<path d="M101.059 131.818H96.6655V136.212H101.059V131.818Z" fill="black"/>
<path d="M105.455 131.818H101.061V136.212H105.455V131.818Z" fill="black"/>
<path d="M109.846 131.818H105.453V136.212H109.846V131.818Z" fill="black"/>
<path d="M114.242 131.818H109.848V136.212H114.242V131.818Z" fill="black"/>
<path d="M127.422 131.818H123.028V136.212H127.422V131.818Z" fill="black"/>
<path d="M131.817 131.818H127.423V136.212H131.817V131.818Z" fill="black"/>
<path d="M136.212 131.818H131.818V136.212H136.212V131.818Z" fill="black"/>
<path d="M144.999 131.818H140.605V136.212H144.999V131.818Z" fill="black"/>
<path d="M52.7249 136.212H48.331V140.606H52.7249V136.212Z" fill="black"/>
<path d="M61.5153 136.212H57.1214V140.606H61.5153V136.212Z" fill="black"/>
<path d="M70.3021 136.212H65.9081V140.606H70.3021V136.212Z" fill="black"/>
<path d="M74.6975 136.212H70.3036V140.606H74.6975V136.212Z" fill="black"/>
<path d="M79.0904 136.212H74.6965V140.606H79.0904V136.212Z" fill="black"/>
<path d="M83.4823 136.212H79.0884V140.606H83.4823V136.212Z" fill="black"/>
<path d="M96.6644 136.212H92.2704V140.606H96.6644V136.212Z" fill="black"/>
<path d="M109.846 136.212H105.453V140.606H109.846V136.212Z" fill="black"/>
<path d="M131.817 136.212H127.423V140.606H131.817V136.212Z" fill="black"/>
<path d="M39.5429 140.606H35.1489V145H39.5429V140.606Z" fill="black"/>
<path d="M52.7249 140.606H48.331V145H52.7249V140.606Z" fill="black"/>
<path d="M57.12 140.606H52.7261V145H57.12V140.606Z" fill="black"/>
<path d="M61.5153 140.606H57.1214V145H61.5153V140.606Z" fill="black"/>
<path d="M65.907 140.606H61.5131V145H65.907V140.606Z" fill="black"/>
<path d="M74.6975 140.606H70.3036V145H74.6975V140.606Z" fill="black"/>
<path d="M83.4823 140.606H79.0884V145H83.4823V140.606Z" fill="black"/>
<path d="M96.6644 140.606H92.2704V145H96.6644V140.606Z" fill="black"/>
<path d="M105.455 140.606H101.061V145H105.455V140.606Z" fill="black"/>
<path d="M109.846 140.606H105.453V145H109.846V140.606Z" fill="black"/>
<path d="M127.422 140.606H123.028V145H127.422V140.606Z" fill="black"/>
<path d="M140.604 140.606H136.21V145H140.604V140.606Z" fill="black"/>
<path d="M26.1442 4.61377H4.61383V26.1441H26.1442V4.61377Z" fill="black"/>
<path d="M26.1443 0H4.61395H0.000305176V4.61364V26.144V30.7576H4.61395H26.1443H30.7579V26.144V4.61364V0H26.1443ZM26.1443 26.144H4.61395V4.61364H26.1443V26.144Z" fill="black"/>
<path d="M140.388 4.61377H118.857V26.1441H140.388V4.61377Z" fill="black"/>
<path d="M140.388 0H118.857H114.244V4.61364V26.144V30.7576H118.857H140.388H145.001V26.144V4.61364V0H140.388ZM140.388 26.144H118.857V4.61364H140.388V26.144Z" fill="black"/>
<path d="M26.1442 118.856H4.61389V140.387H26.1442V118.856Z" fill="black"/>
<path d="M26.1443 114.243H4.61401H0.000366211V118.856V140.387V145H4.61401H26.1443H30.758V140.387V118.856V114.243H26.1443ZM26.1443 140.387H4.61401V118.856H26.1443V140.387Z" fill="black"/>
<path d="M21.9685 8.78809H8.78662V21.9699H21.9685V8.78809Z" fill="black"/>
<path d="M136.21 8.78809H123.028V21.9699H136.21V8.78809Z" fill="black"/>
<path d="M21.9685 123.03H8.78662V136.212H21.9685V123.03Z" fill="black"/>
</svg>
